<svg xmlns="http://www.w3.org/2000/svg" width="564" height="175">
    <defs id="SvgjsDefs1939"></defs>
    <g id="SvgjsG1940" featurekey="root" fill="#e3fadc"></g>
    <g id="SvgjsG1941" featurekey="container1" fill="#063d38" transform="matrix(1.35,0,0,1.35,20,20)">
        <circle xmlns="http://www.w3.org/2000/svg" cx="50" cy="50" r="50"></circle>
    </g>
    <g id="SvgjsG1942" featurekey="symbol1" fill="#e3fadc" transform="matrix(3.502005867694986,0,0,3.502005867694986,53.00000020873581,52.06508511554756)">
        <g>
            <path d="M19.7,8.3c-0.4-0.4-1-0.4-1.4,0l-0.9,0.9c-0.6-5.8-7.4-8.7-12-5c-0.4,0.3-0.5,1-0.2,1.4c0.3,0.4,1,0.5,1.4,0.2   c3.4-2.7,8.5-0.5,8.8,3.8L14,8.3c-0.4-0.4-1-0.4-1.4,0c-0.4,0.4-0.4,1,0,1.4l2.8,2.8c0.4,0.4,1,0.4,1.4,0l2.8-2.8   C20.1,9.3,20.1,8.7,19.7,8.3z"></path>
            <path d="M13.4,14.2c-3.4,2.7-8.5,0.5-8.8-3.8l1.3,1.3c0.4,0.4,1,0.4,1.4,0c0.4-0.4,0.4-1,0-1.4L4.5,7.5c-0.4-0.4-1-0.4-1.4,0   l-2.8,2.8c-0.4,0.4-0.4,1,0,1.4s1,0.4,1.4,0l0.9-0.9c0.6,5.8,7.5,8.7,12,5c0.4-0.3,0.5-1,0.2-1.4S13.8,13.9,13.4,14.2z"></path>
        </g>
    </g>
    <g id="SvgjsG1943" featurekey="text1" fill="#063d38" transform="matrix(3.125000496705452,0,0,3.125000496705452,174.37499975164727,40.37499612569748)">
        <path d="M3.48 20 l-3.28 -9.28 l2.62 0 l1.56 4.7 c0.14 0.42 0.26 1.04 0.32 1.48 c0.08 -0.44 0.2 -1.06 0.34 -1.48 l1.54 -4.7 l1.94 0 l1.5 4.7 c0.12 0.44 0.26 1.1 0.36 1.54 c0.06 -0.42 0.18 -1.08 0.34 -1.52 l1.56 -4.72 l2.56 0 l-3.4 9.28 l-2.18 0 l-1.5 -4.52 l-0.32 -1.08 l-0.3 1.08 l-1.48 4.52 l-2.18 0 z M22.14 20 l0 -5.68 c0 -1.2 -0.36 -1.74 -1.14 -1.74 c-1.48 0 -2.1 2.04 -2.28 2.82 l0 4.6 l-2.5 0 l0 -14.36 l2.5 0 l0 6.4 c0.38 -0.64 1.22 -1.6 2.96 -1.6 c1.52 0 2.96 0.66 2.96 3.22 l0 6.34 l-2.5 0 z M35.16 20.12 c-1.92 0.24 -2.62 -0.52 -2.84 -1.24 c-0.44 0.66 -1.3 1.4 -2.76 1.4 c-1.66 0 -3.08 -0.9 -3.08 -2.64 c0 -2.16 2.16 -3.2 5.52 -3.22 l0 -0.32 c0 -1.28 -0.32 -1.76 -1.38 -1.76 c-0.9 0 -1.38 0.4 -1.34 1.48 l-2.48 -0.46 c-0.22 -1.7 1.22 -2.92 3.96 -2.92 c2.72 0 3.74 1.08 3.74 3.6 l0 2.78 c0 0.9 0 1.44 1.12 1.26 z M32 16.86 l0 -0.78 c-1.72 0.02 -2.9 0.34 -2.9 1.38 c0 0.58 0.36 0.9 1.04 0.9 c0.88 0 1.78 -0.56 1.86 -1.5 z M36.36 12.64 l0 -1.92 l1.36 0 l0.1 -2.62 l2.36 0 l0 2.62 l2.58 0 l0 1.92 l-2.58 0 l0 4.48 c0 0.72 0.16 1.06 0.62 1.06 c0.48 0 0.68 -0.48 0.78 -1.28 l1.92 0.76 c-0.42 1.42 -1 2.54 -3.02 2.54 c-2.12 0 -2.8 -1.52 -2.8 -3.1 l0 -4.46 l-1.32 0 z M44.300000000000004 17.48 l2.36 -0.38 c-0.1 0.66 0.44 1.26 1.64 1.26 c0.78 0 1.46 -0.28 1.46 -0.88 c0 -1.54 -5.16 -0.68 -5.16 -4.14 c0 -1.7 1.24 -2.9 3.78 -2.9 c2.18 0 3.98 0.94 3.66 2.7 l-2.5 0.44 c0.12 -0.52 -0.14 -1.22 -1.24 -1.22 c-0.78 0 -1.16 0.3 -1.16 0.86 c0 1.64 5.2 0.66 5.2 4.1 c0 1.98 -1.76 2.96 -4.04 2.96 c-2.2 0 -4.2 -0.86 -4 -2.8 z M62.36 20.12 c-1.92 0.24 -2.62 -0.52 -2.84 -1.24 c-0.44 0.66 -1.3 1.4 -2.76 1.4 c-1.66 0 -3.08 -0.9 -3.08 -2.64 c0 -2.16 2.16 -3.2 5.52 -3.22 l0 -0.32 c0 -1.28 -0.32 -1.76 -1.38 -1.76 c-0.9 0 -1.38 0.4 -1.34 1.48 l-2.48 -0.46 c-0.22 -1.7 1.22 -2.92 3.96 -2.92 c2.72 0 3.74 1.08 3.74 3.6 l0 2.78 c0 0.9 0 1.44 1.12 1.26 z M59.2 16.86 l0 -0.78 c-1.72 0.02 -2.9 0.34 -2.9 1.38 c0 0.58 0.36 0.9 1.04 0.9 c0.88 0 1.78 -0.56 1.86 -1.5 z M64.4 24.56 l0 -13.84 l2.34 0 l0 1.06 c0.62 -0.84 1.52 -1.34 2.84 -1.34 c2.96 0 3.88 2.44 3.88 4.76 c0 2.86 -1.4 5.08 -4.42 5.08 c-0.96 0 -1.64 -0.32 -2.14 -0.82 l0 5.1 l-2.5 0 z M68.88000000000001 18.36 c1.24 0 1.96 -0.9 1.96 -3.14 c0 -1.86 -0.56 -2.86 -1.82 -2.86 c-1.54 0 -2.12 1.3 -2.12 3.04 c0 1.68 0.5 2.96 1.98 2.96 z M75.48 24.56 l0 -13.84 l2.34 0 l0 1.06 c0.62 -0.84 1.52 -1.34 2.84 -1.34 c2.96 0 3.88 2.44 3.88 4.76 c0 2.86 -1.4 5.08 -4.42 5.08 c-0.96 0 -1.64 -0.32 -2.14 -0.82 l0 5.1 l-2.5 0 z M79.96000000000001 18.36 c1.24 0 1.96 -0.9 1.96 -3.14 c0 -1.86 -0.56 -2.86 -1.82 -2.86 c-1.54 0 -2.12 1.3 -2.12 3.04 c0 1.68 0.5 2.96 1.98 2.96 z M85.96000000000001 17.48 l2.36 -0.38 c-0.1 0.66 0.44 1.26 1.64 1.26 c0.78 0 1.46 -0.28 1.46 -0.88 c0 -1.54 -5.16 -0.68 -5.16 -4.14 c0 -1.7 1.24 -2.9 3.78 -2.9 c2.18 0 3.98 0.94 3.66 2.7 l-2.5 0.44 c0.12 -0.52 -0.14 -1.22 -1.24 -1.22 c-0.78 0 -1.16 0.3 -1.16 0.86 c0 1.64 5.2 0.66 5.2 4.1 c0 1.98 -1.76 2.96 -4.04 2.96 c-2.2 0 -4.2 -0.86 -4 -2.8 z M95.08000000000001 23.84 l1.22 -1.62 s0.5 0.6 1.2 0.6 c0.72 0 1.04 -0.66 1.18 -1.68 l0.18 -1.28 l-4 -9.14 l2.8 0 l1.82 4.52 c0.2 0.5 0.4 1.32 0.54 1.9 c0.14 -0.58 0.34 -1.38 0.52 -1.9 l1.54 -4.52 l2.64 0 l-3.52 9.12 l-0.32 1.86 c-0.26 1.54 -1.1 3.14 -3.32 3.14 c-1.74 0 -2.48 -1 -2.48 -1 z M106.12 20 l0 -9.28 l2.34 0 l0 1.62 c0.26 -0.58 1.08 -1.9 3.12 -1.9 c1.52 0 2.96 0.66 2.96 3.22 l0 6.34 l-2.5 0 l0 -5.68 c0 -1.2 -0.36 -1.74 -1.14 -1.74 c-1.48 0 -2.1 2.04 -2.28 2.82 l0 4.6 l-2.5 0 z M122.56000000000002 17.02 l2.26 0.46 c-0.5 1.64 -1.62 2.8 -3.9 2.8 c-2.98 0 -4.44 -1.82 -4.44 -4.94 c0 -3.68 2.04 -4.9 4.52 -4.9 c2.28 0 3.98 1.08 3.76 3.1 l-2.5 0.48 c0.1 -1.24 -0.48 -1.66 -1.24 -1.66 c-1.52 0 -1.92 1.56 -1.92 3.1 c0 2.02 0.7 2.9 1.84 2.9 c0.9 0 1.48 -0.58 1.62 -1.34 z"></path>
    </g>
</svg>