<svg xmlns="http://www.w3.org/2000/svg" width="175" height="175">
    <defs id="SvgjsDefs1939"></defs>
    <g id="SvgjsG1940" featurekey="root" fill="#e3fadc"></g>
    <g id="SvgjsG1941" featurekey="container1" fill="#063d38" transform="matrix(1.35,0,0,1.35,20,20)">
        <circle xmlns="http://www.w3.org/2000/svg" cx="50" cy="50" r="50"></circle>
    </g>
    <g id="SvgjsG1942" featurekey="symbol1" fill="#e3fadc" transform="matrix(3.502005867694986,0,0,3.502005867694986,53.00000020873581,52.06508511554756)">
        <g>
            <path d="M19.7,8.3c-0.4-0.4-1-0.4-1.4,0l-0.9,0.9c-0.6-5.8-7.4-8.7-12-5c-0.4,0.3-0.5,1-0.2,1.4c0.3,0.4,1,0.5,1.4,0.2   c3.4-2.7,8.5-0.5,8.8,3.8L14,8.3c-0.4-0.4-1-0.4-1.4,0c-0.4,0.4-0.4,1,0,1.4l2.8,2.8c0.4,0.4,1,0.4,1.4,0l2.8-2.8   C20.1,9.3,20.1,8.7,19.7,8.3z"></path>
            <path d="M13.4,14.2c-3.4,2.7-8.5,0.5-8.8-3.8l1.3,1.3c0.4,0.4,1,0.4,1.4,0c0.4-0.4,0.4-1,0-1.4L4.5,7.5c-0.4-0.4-1-0.4-1.4,0   l-2.8,2.8c-0.4,0.4-0.4,1,0,1.4s1,0.4,1.4,0l0.9-0.9c0.6,5.8,7.5,8.7,12,5c0.4-0.3,0.5-1,0.2-1.4S13.8,13.9,13.4,14.2z"></path>
        </g>
    </g>
</svg>